<svg width="140" height="92" viewBox="0 0 140 92" fill="none" xmlns="http://www.w3.org/2000/svg">
<mask id="path-1-inside-1_15_84" fill="white">
<path d="M131.251 10.9375H13.125C13.125 4.90656 8.21844 0 2.1875 0C0.979453 0 0 0.979453 0 2.1875C0 3.39555 0.979453 4.375 2.1875 4.375C5.80617 4.375 8.75 7.31883 8.75 10.9375V89.6875C8.75 90.8955 9.72945 91.875 10.9375 91.875C12.1455 91.875 13.125 90.8955 13.125 89.6875V87.5H17.5027C21.1198 87.5 24.0625 84.5573 24.0625 80.9402V80.9375H131.251C136.075 80.9375 140 77.0126 140 72.1883V19.6867C140 14.8624 136.075 10.9375 131.251 10.9375ZM135.625 72.1883C135.625 74.6003 133.663 76.5625 131.251 76.5625H21.875C20.667 76.5625 19.6875 77.542 19.6875 78.75V80.9402C19.6875 82.145 18.7075 83.125 17.5027 83.125H13.125V15.3125H131.251C133.663 15.3125 135.625 17.2747 135.625 19.6867V72.1883Z"/>
</mask>
<path d="M131.251 10.9375H13.125C13.125 4.90656 8.21844 0 2.1875 0C0.979453 0 0 0.979453 0 2.1875C0 3.39555 0.979453 4.375 2.1875 4.375C5.80617 4.375 8.75 7.31883 8.75 10.9375V89.6875C8.75 90.8955 9.72945 91.875 10.9375 91.875C12.1455 91.875 13.125 90.8955 13.125 89.6875V87.5H17.5027C21.1198 87.5 24.0625 84.5573 24.0625 80.9402V80.9375H131.251C136.075 80.9375 140 77.0126 140 72.1883V19.6867C140 14.8624 136.075 10.9375 131.251 10.9375ZM135.625 72.1883C135.625 74.6003 133.663 76.5625 131.251 76.5625H21.875C20.667 76.5625 19.6875 77.542 19.6875 78.75V80.9402C19.6875 82.145 18.7075 83.125 17.5027 83.125H13.125V15.3125H131.251C133.663 15.3125 135.625 17.2747 135.625 19.6867V72.1883Z" fill="black"/>
<path d="M13.125 10.9375H8.125V15.9375H13.125V10.9375ZM13.125 87.5V82.5H8.125V87.5H13.125ZM24.0625 80.9375V75.9375H19.0625V80.9375H24.0625ZM13.125 83.125H8.125V88.125H13.125V83.125ZM13.125 15.3125V10.3125H8.125V15.3125H13.125ZM131.251 10.9375V5.9375H13.125V10.9375V15.9375H131.251V10.9375ZM13.125 10.9375H18.125C18.125 2.14514 10.9799 -5 2.1875 -5V0V5C5.45701 5 8.125 7.66799 8.125 10.9375H13.125ZM2.1875 0V-5C-1.78197 -5 -5 -1.78197 -5 2.1875H0H5C5 3.74088 3.74088 5 2.1875 5V0ZM0 2.1875H-5C-5 6.15697 -1.78197 9.375 2.1875 9.375V4.375V-0.625C3.74088 -0.625 5 0.634123 5 2.1875H0ZM2.1875 4.375V9.375C3.04475 9.375 3.75 10.0803 3.75 10.9375H8.75H13.75C13.75 4.5574 8.5676 -0.625 2.1875 -0.625V4.375ZM8.75 10.9375H3.75V89.6875H8.75H13.75V10.9375H8.75ZM8.75 89.6875H3.75C3.75 93.657 6.96803 96.875 10.9375 96.875V91.875V86.875C12.4909 86.875 13.75 88.1341 13.75 89.6875H8.75ZM10.9375 91.875V96.875C14.907 96.875 18.125 93.657 18.125 89.6875H13.125H8.125C8.125 88.1341 9.38412 86.875 10.9375 86.875V91.875ZM13.125 89.6875H18.125V87.5H13.125H8.125V89.6875H13.125ZM13.125 87.5V92.5H17.5027V87.5V82.5H13.125V87.5ZM17.5027 87.5V92.5C23.8812 92.5 29.0625 87.3187 29.0625 80.9402H24.0625H19.0625C19.0625 81.7958 18.3583 82.5 17.5027 82.5V87.5ZM24.0625 80.9402H29.0625V80.9375H24.0625H19.0625V80.9402H24.0625ZM24.0625 80.9375V85.9375H131.251V80.9375V75.9375H24.0625V80.9375ZM131.251 80.9375V85.9375C138.836 85.9375 145 79.774 145 72.1883H140H135C135 74.2512 133.314 75.9375 131.251 75.9375V80.9375ZM140 72.1883H145V19.6867H140H135V72.1883H140ZM140 19.6867H145C145 12.101 138.836 5.9375 131.251 5.9375V10.9375V15.9375C133.314 15.9375 135 17.6238 135 19.6867H140ZM135.625 72.1883H130.625C130.625 71.8389 130.901 71.5625 131.251 71.5625V76.5625V81.5625C136.424 81.5625 140.625 77.3617 140.625 72.1883H135.625ZM131.251 76.5625V71.5625H21.875V76.5625V81.5625H131.251V76.5625ZM21.875 76.5625V71.5625C17.9055 71.5625 14.6875 74.7805 14.6875 78.75H19.6875H24.6875C24.6875 80.3034 23.4284 81.5625 21.875 81.5625V76.5625ZM19.6875 78.75H14.6875V80.9402H19.6875H24.6875V78.75H19.6875ZM19.6875 80.9402H14.6875C14.6875 79.3836 15.9461 78.125 17.5027 78.125V83.125V88.125C21.4689 88.125 24.6875 84.9064 24.6875 80.9402H19.6875ZM17.5027 83.125V78.125H13.125V83.125V88.125H17.5027V83.125ZM13.125 83.125H18.125V15.3125H13.125H8.125V83.125H13.125ZM13.125 15.3125V20.3125H131.251V15.3125V10.3125H13.125V15.3125ZM131.251 15.3125V20.3125C130.901 20.3125 130.625 20.0361 130.625 19.6867H135.625H140.625C140.625 14.5133 136.424 10.3125 131.251 10.3125V15.3125ZM135.625 19.6867H130.625V72.1883H135.625H140.625V19.6867H135.625Z" fill="#6366F1" mask="url(#path-1-inside-1_15_84)"/>
<path d="M65.8164 45.4199L65.9541 46.0938L65.7764 46.248L65.2959 46.083L65.2471 45.8213L65.7422 45.3936L65.8164 45.4199Z" fill="black" stroke="#6366F1" stroke-width="5"/>
<mask id="path-4-inside-2_15_84" fill="white">
<path d="M120.312 21.875C119.104 21.875 118.125 22.8545 118.125 24.0625C118.125 25.2705 119.104 26.25 120.312 26.25C122.725 26.25 124.688 28.2127 124.688 30.625V61.25C124.688 63.6623 122.725 65.625 120.312 65.625H65.625C54.7693 65.625 45.9375 56.7932 45.9375 45.9375C45.9375 35.0818 54.7693 26.25 65.625 26.25H111.562C112.771 26.25 113.75 25.2705 113.75 24.0625C113.75 22.8545 112.771 21.875 111.562 21.875H65.625C52.357 21.875 41.5625 32.6695 41.5625 45.9375C41.5625 59.2055 52.357 70 65.625 70H120.312C125.137 70 129.062 66.0748 129.062 61.25V30.625C129.062 25.8002 125.137 21.875 120.312 21.875Z"/>
</mask>
<path d="M120.312 21.875C119.104 21.875 118.125 22.8545 118.125 24.0625C118.125 25.2705 119.104 26.25 120.312 26.25C122.725 26.25 124.688 28.2127 124.688 30.625V61.25C124.688 63.6623 122.725 65.625 120.312 65.625H65.625C54.7693 65.625 45.9375 56.7932 45.9375 45.9375C45.9375 35.0818 54.7693 26.25 65.625 26.25H111.562C112.771 26.25 113.75 25.2705 113.75 24.0625C113.75 22.8545 112.771 21.875 111.562 21.875H65.625C52.357 21.875 41.5625 32.6695 41.5625 45.9375C41.5625 59.2055 52.357 70 65.625 70H120.312C125.137 70 129.062 66.0748 129.062 61.25V30.625C129.062 25.8002 125.137 21.875 120.312 21.875Z" fill="black"/>
<path d="M120.312 21.875V16.875C116.343 16.875 113.125 20.093 113.125 24.0625H118.125H123.125C123.125 25.6159 121.866 26.875 120.312 26.875V21.875ZM118.125 24.0625H113.125C113.125 28.032 116.343 31.25 120.312 31.25V26.25V21.25C121.866 21.25 123.125 22.5091 123.125 24.0625H118.125ZM120.312 26.25V31.25C119.963 31.25 119.688 30.9742 119.688 30.625H124.688H129.688C129.688 25.4513 125.486 21.25 120.312 21.25V26.25ZM124.688 30.625H119.688V61.25H124.688H129.688V30.625H124.688ZM124.688 61.25H119.688C119.688 60.9008 119.963 60.625 120.312 60.625V65.625V70.625C125.486 70.625 129.688 66.4237 129.688 61.25H124.688ZM120.312 65.625V60.625H65.625V65.625V70.625H120.312V65.625ZM65.625 65.625V60.625C57.5307 60.625 50.9375 54.0318 50.9375 45.9375H45.9375H40.9375C40.9375 59.5547 52.0078 70.625 65.625 70.625V65.625ZM45.9375 45.9375H50.9375C50.9375 37.8432 57.5307 31.25 65.625 31.25V26.25V21.25C52.0078 21.25 40.9375 32.3203 40.9375 45.9375H45.9375ZM65.625 26.25V31.25H111.562V26.25V21.25H65.625V26.25ZM111.562 26.25V31.25C115.532 31.25 118.75 28.032 118.75 24.0625H113.75H108.75C108.75 22.5091 110.009 21.25 111.562 21.25V26.25ZM113.75 24.0625H118.75C118.75 20.093 115.532 16.875 111.562 16.875V21.875V26.875C110.009 26.875 108.75 25.6159 108.75 24.0625H113.75ZM111.562 21.875V16.875H65.625V21.875V26.875H111.562V21.875ZM65.625 21.875V16.875C49.5956 16.875 36.5625 29.9081 36.5625 45.9375H41.5625H46.5625C46.5625 35.4309 55.1184 26.875 65.625 26.875V21.875ZM41.5625 45.9375H36.5625C36.5625 61.9669 49.5956 75 65.625 75V70V65C55.1184 65 46.5625 56.4441 46.5625 45.9375H41.5625ZM65.625 70V75H120.312V70V65H65.625V70ZM120.312 70V75C127.899 75 134.062 68.8362 134.062 61.25H129.062H124.062C124.062 63.3134 122.376 65 120.312 65V70ZM129.062 61.25H134.062V30.625H129.062H124.062V61.25H129.062ZM129.062 30.625H134.062C134.062 23.0388 127.899 16.875 120.312 16.875V21.875V26.875C122.376 26.875 124.062 28.5616 124.062 30.625H129.062Z" fill="#6366F1" mask="url(#path-4-inside-2_15_84)"/>
<mask id="path-6-inside-3_15_84" fill="white">
<path d="M30.625 39.375H24.0625C21.6502 39.375 19.6875 41.3377 19.6875 43.75V48.125C19.6875 50.5373 21.6502 52.5 24.0625 52.5H30.625C33.0373 52.5 35 50.5373 35 48.125V43.75C35 41.3377 33.0373 39.375 30.625 39.375ZM24.0625 48.125V43.75H30.625L30.6253 48.125H24.0625Z"/>
</mask>
<path d="M30.625 39.375H24.0625C21.6502 39.375 19.6875 41.3377 19.6875 43.75V48.125C19.6875 50.5373 21.6502 52.5 24.0625 52.5H30.625C33.0373 52.5 35 50.5373 35 48.125V43.75C35 41.3377 33.0373 39.375 30.625 39.375ZM24.0625 48.125V43.75H30.625L30.6253 48.125H24.0625Z" fill="black"/>
<path d="M24.0625 48.125H19.0625V53.125H24.0625V48.125ZM24.0625 43.75V38.75H19.0625V43.75H24.0625ZM30.625 43.75L35.625 43.7497L35.6247 38.75H30.625V43.75ZM30.6253 48.125V53.125H35.6256L35.6253 48.1247L30.6253 48.125ZM30.625 39.375V34.375H24.0625V39.375V44.375H30.625V39.375ZM24.0625 39.375V34.375C18.8888 34.375 14.6875 38.5763 14.6875 43.75H19.6875H24.6875C24.6875 44.0992 24.4117 44.375 24.0625 44.375V39.375ZM19.6875 43.75H14.6875V48.125H19.6875H24.6875V43.75H19.6875ZM19.6875 48.125H14.6875C14.6875 53.2987 18.8888 57.5 24.0625 57.5V52.5V47.5C24.4117 47.5 24.6875 47.7758 24.6875 48.125H19.6875ZM24.0625 52.5V57.5H30.625V52.5V47.5H24.0625V52.5ZM30.625 52.5V57.5C35.7987 57.5 40 53.2987 40 48.125H35H30C30 47.7758 30.2758 47.5 30.625 47.5V52.5ZM35 48.125H40V43.75H35H30V48.125H35ZM35 43.75H40C40 38.5763 35.7987 34.375 30.625 34.375V39.375V44.375C30.2758 44.375 30 44.0992 30 43.75H35ZM24.0625 48.125H29.0625V43.75H24.0625H19.0625V48.125H24.0625ZM24.0625 43.75V48.75H30.625V43.75V38.75H24.0625V43.75ZM30.625 43.75L25.625 43.7503L25.6253 48.1253L30.6253 48.125L35.6253 48.1247L35.625 43.7497L30.625 43.75ZM30.6253 48.125V43.125H24.0625V48.125V53.125H30.6253V48.125Z" fill="#6366F1" mask="url(#path-6-inside-3_15_84)"/>
<mask id="path-8-inside-4_15_84" fill="white">
<path d="M30.625 24.0625H24.0625C21.6502 24.0625 19.6875 26.0252 19.6875 28.4375V32.8125C19.6875 35.2248 21.6502 37.1875 24.0625 37.1875H30.625C33.0373 37.1875 35 35.2248 35 32.8125V28.4375C35 26.0252 33.0373 24.0625 30.625 24.0625ZM24.0625 32.8125V28.4375H30.625L30.6253 32.8125H24.0625Z"/>
</mask>
<path d="M30.625 24.0625H24.0625C21.6502 24.0625 19.6875 26.0252 19.6875 28.4375V32.8125C19.6875 35.2248 21.6502 37.1875 24.0625 37.1875H30.625C33.0373 37.1875 35 35.2248 35 32.8125V28.4375C35 26.0252 33.0373 24.0625 30.625 24.0625ZM24.0625 32.8125V28.4375H30.625L30.6253 32.8125H24.0625Z" fill="black"/>
<path d="M24.0625 32.8125H19.0625V37.8125H24.0625V32.8125ZM24.0625 28.4375V23.4375H19.0625V28.4375H24.0625ZM30.625 28.4375L35.625 28.4372L35.6247 23.4375H30.625V28.4375ZM30.6253 32.8125V37.8125H35.6256L35.6253 32.8122L30.6253 32.8125ZM30.625 24.0625V19.0625H24.0625V24.0625V29.0625H30.625V24.0625ZM24.0625 24.0625V19.0625C18.8888 19.0625 14.6875 23.2638 14.6875 28.4375H19.6875H24.6875C24.6875 28.7867 24.4117 29.0625 24.0625 29.0625V24.0625ZM19.6875 28.4375H14.6875V32.8125H19.6875H24.6875V28.4375H19.6875ZM19.6875 32.8125H14.6875C14.6875 37.9862 18.8888 42.1875 24.0625 42.1875V37.1875V32.1875C24.4117 32.1875 24.6875 32.4633 24.6875 32.8125H19.6875ZM24.0625 37.1875V42.1875H30.625V37.1875V32.1875H24.0625V37.1875ZM30.625 37.1875V42.1875C35.7987 42.1875 40 37.9862 40 32.8125H35H30C30 32.4633 30.2758 32.1875 30.625 32.1875V37.1875ZM35 32.8125H40V28.4375H35H30V32.8125H35ZM35 28.4375H40C40 23.2638 35.7987 19.0625 30.625 19.0625V24.0625V29.0625C30.2758 29.0625 30 28.7867 30 28.4375H35ZM24.0625 32.8125H29.0625V28.4375H24.0625H19.0625V32.8125H24.0625ZM24.0625 28.4375V33.4375H30.625V28.4375V23.4375H24.0625V28.4375ZM30.625 28.4375L25.625 28.4378L25.6253 32.8128L30.6253 32.8125L35.6253 32.8122L35.625 28.4372L30.625 28.4375ZM30.6253 32.8125V27.8125H24.0625V32.8125V37.8125H30.6253V32.8125Z" fill="#6366F1" mask="url(#path-8-inside-4_15_84)"/>
<mask id="path-10-inside-5_15_84" fill="white">
<path d="M30.625 54.6875H24.0625C21.6502 54.6875 19.6875 56.6502 19.6875 59.0625V63.4375C19.6875 65.8498 21.6502 67.8125 24.0625 67.8125H30.625C33.0373 67.8125 35 65.8498 35 63.4375V59.0625C35 56.6502 33.0373 54.6875 30.625 54.6875ZM24.0625 63.4375V59.0625H30.625L30.6253 63.4375H24.0625Z"/>
</mask>
<path d="M30.625 54.6875H24.0625C21.6502 54.6875 19.6875 56.6502 19.6875 59.0625V63.4375C19.6875 65.8498 21.6502 67.8125 24.0625 67.8125H30.625C33.0373 67.8125 35 65.8498 35 63.4375V59.0625C35 56.6502 33.0373 54.6875 30.625 54.6875ZM24.0625 63.4375V59.0625H30.625L30.6253 63.4375H24.0625Z" fill="black"/>
<path d="M24.0625 63.4375H19.0625V68.4375H24.0625V63.4375ZM24.0625 59.0625V54.0625H19.0625V59.0625H24.0625ZM30.625 59.0625L35.625 59.0622L35.6247 54.0625H30.625V59.0625ZM30.6253 63.4375V68.4375H35.6256L35.6253 63.4372L30.6253 63.4375ZM30.625 54.6875V49.6875H24.0625V54.6875V59.6875H30.625V54.6875ZM24.0625 54.6875V49.6875C18.8888 49.6875 14.6875 53.8888 14.6875 59.0625H19.6875H24.6875C24.6875 59.4117 24.4117 59.6875 24.0625 59.6875V54.6875ZM19.6875 59.0625H14.6875V63.4375H19.6875H24.6875V59.0625H19.6875ZM19.6875 63.4375H14.6875C14.6875 68.6112 18.8888 72.8125 24.0625 72.8125V67.8125V62.8125C24.4117 62.8125 24.6875 63.0883 24.6875 63.4375H19.6875ZM24.0625 67.8125V72.8125H30.625V67.8125V62.8125H24.0625V67.8125ZM30.625 67.8125V72.8125C35.7987 72.8125 40 68.6112 40 63.4375H35H30C30 63.0883 30.2758 62.8125 30.625 62.8125V67.8125ZM35 63.4375H40V59.0625H35H30V63.4375H35ZM35 59.0625H40C40 53.8888 35.7987 49.6875 30.625 49.6875V54.6875V59.6875C30.2758 59.6875 30 59.4117 30 59.0625H35ZM24.0625 63.4375H29.0625V59.0625H24.0625H19.0625V63.4375H24.0625ZM24.0625 59.0625V64.0625H30.625V59.0625V54.0625H24.0625V59.0625ZM30.625 59.0625L25.625 59.0628L25.6253 63.4378L30.6253 63.4375L35.6253 63.4372L35.625 59.0622L30.625 59.0625ZM30.6253 63.4375V58.4375H24.0625V63.4375V68.4375H30.6253V63.4375Z" fill="#6366F1" mask="url(#path-10-inside-5_15_84)"/>
<mask id="path-12-inside-6_15_84" fill="white">
<path d="M118.125 30.625H111.562C110.354 30.625 109.375 31.6045 109.375 32.8125C109.375 34.0205 110.354 35 111.562 35H118.125C119.333 35 120.312 34.0205 120.312 32.8125C120.312 31.6045 119.333 30.625 118.125 30.625Z"/>
</mask>
<path d="M118.125 30.625H111.562C110.354 30.625 109.375 31.6045 109.375 32.8125C109.375 34.0205 110.354 35 111.562 35H118.125C119.333 35 120.312 34.0205 120.312 32.8125C120.312 31.6045 119.333 30.625 118.125 30.625Z" fill="black"/>
<path d="M118.125 30.625V25.625H111.562V30.625V35.625H118.125V30.625ZM111.562 30.625V25.625C107.593 25.625 104.375 28.843 104.375 32.8125H109.375H114.375C114.375 34.3659 113.116 35.625 111.562 35.625V30.625ZM109.375 32.8125H104.375C104.375 36.782 107.593 40 111.562 40V35V30C113.116 30 114.375 31.2591 114.375 32.8125H109.375ZM111.562 35V40H118.125V35V30H111.562V35ZM118.125 35V40C122.094 40 125.312 36.782 125.312 32.8125H120.312H115.312C115.312 31.2591 116.572 30 118.125 30V35ZM120.312 32.8125H125.312C125.312 28.843 122.094 25.625 118.125 25.625V30.625V35.625C116.572 35.625 115.312 34.3659 115.312 32.8125H120.312Z" fill="#6366F1" mask="url(#path-12-inside-6_15_84)"/>
<mask id="path-14-inside-7_15_84" fill="white">
<path d="M118.125 56.875H111.562C110.354 56.875 109.375 57.8545 109.375 59.0625C109.375 60.2705 110.354 61.25 111.562 61.25H118.125C119.333 61.25 120.312 60.2705 120.312 59.0625C120.312 57.8545 119.333 56.875 118.125 56.875Z"/>
</mask>
<path d="M118.125 56.875H111.562C110.354 56.875 109.375 57.8545 109.375 59.0625C109.375 60.2705 110.354 61.25 111.562 61.25H118.125C119.333 61.25 120.312 60.2705 120.312 59.0625C120.312 57.8545 119.333 56.875 118.125 56.875Z" fill="black"/>
<path d="M118.125 56.875V51.875H111.562V56.875V61.875H118.125V56.875ZM111.562 56.875V51.875C107.593 51.875 104.375 55.093 104.375 59.0625H109.375H114.375C114.375 60.6159 113.116 61.875 111.562 61.875V56.875ZM109.375 59.0625H104.375C104.375 63.032 107.593 66.25 111.562 66.25V61.25V56.25C113.116 56.25 114.375 57.5091 114.375 59.0625H109.375ZM111.562 61.25V66.25H118.125V61.25V56.25H111.562V61.25ZM118.125 61.25V66.25C122.094 66.25 125.312 63.032 125.312 59.0625H120.312H115.312C115.312 57.5091 116.572 56.25 118.125 56.25V61.25ZM120.312 59.0625H125.312C125.312 55.093 122.094 51.875 118.125 51.875V56.875V61.875C116.572 61.875 115.312 60.6159 115.312 59.0625H120.312Z" fill="#6366F1" mask="url(#path-14-inside-7_15_84)"/>
<mask id="path-16-inside-8_15_84" fill="white">
<path d="M118.125 37.1875H111.562C110.354 37.1875 109.375 38.167 109.375 39.375C109.375 40.583 110.354 41.5625 111.562 41.5625H118.125C119.333 41.5625 120.312 40.583 120.312 39.375C120.312 38.167 119.333 37.1875 118.125 37.1875Z"/>
</mask>
<path d="M118.125 37.1875H111.562C110.354 37.1875 109.375 38.167 109.375 39.375C109.375 40.583 110.354 41.5625 111.562 41.5625H118.125C119.333 41.5625 120.312 40.583 120.312 39.375C120.312 38.167 119.333 37.1875 118.125 37.1875Z" fill="black"/>
<path d="M118.125 37.1875V32.1875H111.562V37.1875V42.1875H118.125V37.1875ZM111.562 37.1875V32.1875C107.593 32.1875 104.375 35.4055 104.375 39.375H109.375H114.375C114.375 40.9284 113.116 42.1875 111.562 42.1875V37.1875ZM109.375 39.375H104.375C104.375 43.3445 107.593 46.5625 111.562 46.5625V41.5625V36.5625C113.116 36.5625 114.375 37.8216 114.375 39.375H109.375ZM111.562 41.5625V46.5625H118.125V41.5625V36.5625H111.562V41.5625ZM118.125 41.5625V46.5625C122.094 46.5625 125.312 43.3445 125.312 39.375H120.312H115.312C115.312 37.8216 116.572 36.5625 118.125 36.5625V41.5625ZM120.312 39.375H125.312C125.312 35.4055 122.094 32.1875 118.125 32.1875V37.1875V42.1875C116.572 42.1875 115.312 40.9284 115.312 39.375H120.312Z" fill="#6366F1" mask="url(#path-16-inside-8_15_84)"/>
<mask id="path-18-inside-9_15_84" fill="white">
<path d="M118.125 43.75H111.562C110.354 43.75 109.375 44.7295 109.375 45.9375C109.375 47.1455 110.354 48.125 111.562 48.125H118.125C119.333 48.125 120.312 47.1455 120.312 45.9375C120.312 44.7295 119.333 43.75 118.125 43.75Z"/>
</mask>
<path d="M118.125 43.75H111.562C110.354 43.75 109.375 44.7295 109.375 45.9375C109.375 47.1455 110.354 48.125 111.562 48.125H118.125C119.333 48.125 120.312 47.1455 120.312 45.9375C120.312 44.7295 119.333 43.75 118.125 43.75Z" fill="black"/>
<path d="M118.125 43.75V38.75H111.562V43.75V48.75H118.125V43.75ZM111.562 43.75V38.75C107.593 38.75 104.375 41.968 104.375 45.9375H109.375H114.375C114.375 47.4909 113.116 48.75 111.562 48.75V43.75ZM109.375 45.9375H104.375C104.375 49.907 107.593 53.125 111.562 53.125V48.125V43.125C113.116 43.125 114.375 44.3841 114.375 45.9375H109.375ZM111.562 48.125V53.125H118.125V48.125V43.125H111.562V48.125ZM118.125 48.125V53.125C122.094 53.125 125.312 49.907 125.312 45.9375H120.312H115.312C115.312 44.3841 116.572 43.125 118.125 43.125V48.125ZM120.312 45.9375H125.312C125.312 41.968 122.094 38.75 118.125 38.75V43.75V48.75C116.572 48.75 115.312 47.4909 115.312 45.9375H120.312Z" fill="#6366F1" mask="url(#path-18-inside-9_15_84)"/>
<mask id="path-20-inside-10_15_84" fill="white">
<path d="M118.125 50.3125H111.562C110.354 50.3125 109.375 51.292 109.375 52.5C109.375 53.708 110.354 54.6875 111.562 54.6875H118.125C119.333 54.6875 120.312 53.708 120.312 52.5C120.312 51.292 119.333 50.3125 118.125 50.3125Z"/>
</mask>
<path d="M118.125 50.3125H111.562C110.354 50.3125 109.375 51.292 109.375 52.5C109.375 53.708 110.354 54.6875 111.562 54.6875H118.125C119.333 54.6875 120.312 53.708 120.312 52.5C120.312 51.292 119.333 50.3125 118.125 50.3125Z" fill="black"/>
<path d="M118.125 50.3125V45.3125H111.562V50.3125V55.3125H118.125V50.3125ZM111.562 50.3125V45.3125C107.593 45.3125 104.375 48.5305 104.375 52.5H109.375H114.375C114.375 54.0534 113.116 55.3125 111.562 55.3125V50.3125ZM109.375 52.5H104.375C104.375 56.4695 107.593 59.6875 111.562 59.6875V54.6875V49.6875C113.116 49.6875 114.375 50.9466 114.375 52.5H109.375ZM111.562 54.6875V59.6875H118.125V54.6875V49.6875H111.562V54.6875ZM118.125 54.6875V59.6875C122.094 59.6875 125.312 56.4695 125.312 52.5H120.312H115.312C115.312 50.9466 116.572 49.6875 118.125 49.6875V54.6875ZM120.312 52.5H125.312C125.312 48.5305 122.094 45.3125 118.125 45.3125V50.3125V55.3125C116.572 55.3125 115.312 54.0534 115.312 52.5H120.312Z" fill="#6366F1" mask="url(#path-20-inside-10_15_84)"/>
</svg>
