<svg width="124" height="98" viewBox="0 0 124 98" fill="none" xmlns="http://www.w3.org/2000/svg">
<path d="M18.6067 47.6229C22.9143 47.6229 26.4063 44.1309 26.4063 39.8233C26.4063 35.5157 22.9143 32.0237 18.6067 32.0237C14.2991 32.0237 10.8071 35.5157 10.8071 39.8233C10.8071 44.1309 14.2991 47.6229 18.6067 47.6229Z" fill="#6366F1"/>
<path d="M37.2134 39.8232C37.2134 29.5643 28.8656 21.2166 18.6067 21.2166C8.35474 21.2166 0 29.5643 0 39.8232C0 50.0822 8.34771 58.4299 18.6067 58.4299C28.8656 58.4299 37.2134 50.0822 37.2134 39.8232ZM18.6067 54.0242C10.7789 54.0242 4.40573 47.658 4.40573 39.8232C4.40573 31.9885 10.7789 25.6223 18.6067 25.6223C26.4414 25.6223 32.8076 31.9885 32.8076 39.8232C32.8076 47.658 26.4344 54.0242 18.6067 54.0242Z" fill="#6366F1"/>
<path d="M39.7359 51.593C38.8365 54.0875 37.4101 56.4344 35.4216 58.43C33.2714 60.5731 30.7277 62.0558 28.0295 62.9341L48.3788 83.2974H44.4438V97.5968H82.6339V83.2974H71.4193L39.7359 51.593Z" fill="#6366F1"/>
<path d="M123.473 19.7269C122.742 18.9962 121.569 18.9751 120.831 19.6988L103.84 36.3099L91.3329 29.747L88.0514 15.4547L96.4272 4.08554L118.955 11.6252C119.299 11.7376 119.65 11.7517 119.981 11.6744C120.592 11.5338 121.119 11.0911 121.323 10.4447C121.667 9.46798 121.133 8.39992 120.156 8.0767L96.3289 0.101403C95.5559 -0.165611 94.7127 0.10843 94.2349 0.761912L86.611 11.0911L80.3221 12.5316L81.2074 16.3822L37.1993 26.4866C38.8295 28.5735 40.0591 31.0259 40.6915 33.7803C41.3661 36.7315 41.2888 39.6757 40.5932 42.4372L84.8473 32.2696L85.7326 36.1202L92.4291 34.5814L92.415 34.5533L103.292 40.266C103.707 40.4768 104.164 40.533 104.585 40.4276C104.915 40.3503 105.232 40.1887 105.471 39.9427L123.431 22.369C124.176 21.6523 124.19 20.4647 123.473 19.7269Z" fill="#6366F1"/>
</svg>
