<svg width="203" height="86" viewBox="0 0 203 86" fill="none" xmlns="http://www.w3.org/2000/svg">
<path d="M20.4124 20.3678C23.6008 20.3678 26.1855 17.7791 26.1855 14.5859C26.1855 11.3926 23.6008 8.80396 20.4124 8.80396C17.2239 8.80396 14.6392 11.3926 14.6392 14.5859C14.6392 17.7791 17.2239 20.3678 20.4124 20.3678Z" fill="#6366F1"/>
<path d="M45.3608 81.9039C47.6382 81.9039 49.4845 80.0549 49.4845 77.774C49.4845 75.4931 47.6382 73.644 45.3608 73.644C43.0833 73.644 41.2371 75.4931 41.2371 77.774C41.2371 80.0549 43.0833 81.9039 45.3608 81.9039Z" fill="#6366F1"/>
<path d="M8.04137 52.9944C11.0021 52.9944 13.4022 50.5907 13.4022 47.6255C13.4022 44.6603 11.0021 42.2566 8.04137 42.2566C5.08067 42.2566 2.68054 44.6603 2.68054 47.6255C2.68054 50.5907 5.08067 52.9944 8.04137 52.9944Z" fill="#6366F1"/>
<path d="M36.9073 39.3656C39.1847 39.3656 41.031 37.5166 41.031 35.2357C41.031 32.9548 39.1847 31.1057 36.9073 31.1057C34.6298 31.1057 32.7836 32.9548 32.7836 35.2357C32.7836 37.5166 34.6298 39.3656 36.9073 39.3656Z" fill="#6366F1"/>
<path d="M24.5361 69.1012C27.2691 69.1012 29.4846 66.8823 29.4846 64.1453C29.4846 61.4082 27.2691 59.1893 24.5361 59.1893C21.8031 59.1893 19.5876 61.4082 19.5876 64.1453C19.5876 66.8823 21.8031 69.1012 24.5361 69.1012Z" fill="#6366F1"/>
<path d="M53.402 59.6022C55.4517 59.6022 57.1134 57.9381 57.1134 55.8853C57.1134 53.8325 55.4517 52.1683 53.402 52.1683C51.3523 52.1683 49.6907 53.8325 49.6907 55.8853C49.6907 57.9381 51.3523 59.6022 53.402 59.6022Z" fill="#6366F1"/>
<path d="M54.0206 14.5859C56.5258 14.5859 58.5567 12.5519 58.5567 10.0429C58.5567 7.53394 56.5258 5.5 54.0206 5.5C51.5154 5.5 49.4845 7.53394 49.4845 10.0429C49.4845 12.5519 51.5154 14.5859 54.0206 14.5859Z" fill="#6366F1"/>
<path d="M3.91752 80.4585C6.08111 80.4585 7.83505 78.7019 7.83505 76.535C7.83505 74.3682 6.08111 72.6116 3.91752 72.6116C1.75393 72.6116 0 74.3682 0 76.535C0 78.7019 1.75393 80.4585 3.91752 80.4585Z" fill="#6366F1"/>
<path d="M171.261 62.0452L163.093 53.9329C159.151 50.0178 157.18 48.0605 154.919 47.345C152.93 46.7158 150.792 46.7388 148.817 47.4112C146.571 48.1758 144.643 50.1753 140.787 54.1742L121.216 73.534M171.261 62.0452L172.933 60.385C176.88 56.4655 178.853 54.5058 181.117 53.7902C183.108 53.161 185.247 53.186 187.224 53.8608C189.471 54.6279 191.398 56.6328 195.254 60.642L199.351 64.7715M171.261 62.0452L190.903 81.7556M121.216 73.534C121.368 74.7699 121.627 75.7468 122.067 76.6134C123.006 78.4589 124.505 79.9596 126.348 80.8998C128.443 81.9689 131.185 81.9689 136.67 81.9689H183.68C186.884 81.9689 189.153 81.9689 190.903 81.7556M121.216 73.534C121 71.7782 121 69.4997 121 66.2751V19.1938C121 13.7005 121 10.9538 122.067 8.8556C123.006 7.00996 124.505 5.50944 126.348 4.56909C128.443 3.5 131.185 3.5 136.67 3.5H183.68C189.165 3.5 191.908 3.5 194.003 4.56909C195.846 5.50944 197.344 7.00996 198.283 8.8556C199.351 10.9538 199.351 13.7005 199.351 19.1938V64.7715M199.351 64.7715V66.2751C199.351 71.7684 199.351 74.5153 198.283 76.6134C197.344 78.4589 195.846 79.9596 194.003 80.8998C193.132 81.3446 192.149 81.604 190.903 81.7556M184.66 28.021C184.66 33.4383 180.275 37.8297 174.866 37.8297C169.457 37.8297 165.072 33.4383 165.072 28.021C165.072 22.6038 169.457 18.2124 174.866 18.2124C180.275 18.2124 184.66 22.6038 184.66 28.021Z" stroke="#6366F1" stroke-width="7" stroke-linecap="round" stroke-linejoin="round"/>
<path d="M111 23.5L96 14.8397V32.1603L111 23.5ZM69 23.5V25L97.5 25V23.5V22L69 22V23.5Z" fill="#6366F1"/>
<path d="M66 64.5L81 73.1603V55.8397L66 64.5ZM79.5 64.5V66H110V64.5V63H79.5V64.5Z" fill="#6366F1"/>
</svg>
