<svg width="198" height="80" viewBox="0 0 198 80" fill="none" xmlns="http://www.w3.org/2000/svg">
<path d="M22 17C25.866 17 29 13.866 29 10C29 6.13401 25.866 3 22 3C18.134 3 15 6.13401 15 10C15 13.866 18.134 17 22 17Z" fill="#6366F1"/>
<path d="M46.5 79C49.5376 79 52 76.5376 52 73.5C52 70.4624 49.5376 68 46.5 68C43.4624 68 41 70.4624 41 73.5C41 76.5376 43.4624 79 46.5 79Z" fill="#6366F1"/>
<path d="M9.5 50C13.0899 50 16 47.0899 16 43.5C16 39.9101 13.0899 37 9.5 37C5.91015 37 3 39.9101 3 43.5C3 47.0899 5.91015 50 9.5 50Z" fill="#6366F1"/>
<path d="M38.5 37C41.5376 37 44 34.5376 44 31.5C44 28.4624 41.5376 26 38.5 26C35.4624 26 33 28.4624 33 31.5C33 34.5376 35.4624 37 38.5 37Z" fill="#6366F1"/>
<path d="M26 66C29.3137 66 32 63.3137 32 60C32 56.6863 29.3137 54 26 54C22.6863 54 20 56.6863 20 60C20 63.3137 22.6863 66 26 66Z" fill="#6366F1"/>
<path d="M55 57C57.7614 57 60 54.7614 60 52C60 49.2386 57.7614 47 55 47C52.2386 47 50 49.2386 50 52C50 54.7614 52.2386 57 55 57Z" fill="#6366F1"/>
<path d="M55 12C58.3137 12 61 9.31371 61 6C61 2.68629 58.3137 0 55 0C51.6863 0 49 2.68629 49 6C49 9.31371 51.6863 12 55 12Z" fill="#6366F1"/>
<path d="M5 77C7.76142 77 10 74.7614 10 72C10 69.2386 7.76142 67 5 67C2.23858 67 0 69.2386 0 72C0 74.7614 2.23858 77 5 77Z" fill="#6366F1"/>
<path d="M84.5385 65L71.952 53.7454C71.2676 53.1335 71.7005 52 72.6186 52H112" stroke="#6366F1" stroke-width="6"/>
<path d="M97.4615 17L110.048 28.2546C110.732 28.8665 110.299 30 109.381 30H70" stroke="#6366F1" stroke-width="6"/>
<path d="M131.778 76H186.222C190.518 76 194 72.5178 194 68.2222V13.7778C194 9.48223 190.518 6 186.222 6H131.778C127.482 6 124 9.48223 124 13.7778V68.2222C124 72.5178 127.482 76 131.778 76ZM131.778 76L174.556 33.2222L194 52.6667M151.222 27.3889C151.222 30.6105 148.611 33.2222 145.389 33.2222C142.167 33.2222 139.556 30.6105 139.556 27.3889C139.556 24.1672 142.167 21.5556 145.389 21.5556C148.611 21.5556 151.222 24.1672 151.222 27.3889Z" stroke="#6366F1" stroke-width="7" stroke-linecap="round" stroke-linejoin="round"/>
</svg>
